<svg width="80" height="80" viewBox="0 0 80 80" fill="none" xmlns="http://www.w3.org/2000/svg">
<g filter="url(#filter0_d)">
<path d="M68.7995 38.1333H29.3328C27.5661 38.1354 26.1349 39.5667 26.1328 41.3333V64.8C26.1349 66.5667 27.5661 67.9979 29.3328 68H68.7995C70.5661 67.9979 71.9974 66.5667 71.9995 64.8V41.3333C71.9974 39.5667 70.5661 38.1354 68.7995 38.1333ZM69.8661 64.8C69.8656 65.3891 69.3885 65.8661 68.7995 65.8667H29.3328C28.7438 65.8661 28.2667 65.3891 28.2661 64.8V41.3333C28.2667 40.7443 28.7438 40.2672 29.3328 40.2667H68.7995C69.3885 40.2672 69.8656 40.7443 69.8661 41.3333V64.8Z" fill="white"/>
<path d="M19.7329 36H63.4663V31.7333C63.4642 29.9667 62.0329 28.5354 60.2663 28.5333H20.7996C19.0329 28.5354 17.6017 29.9667 17.5996 31.7333V55.2C17.6017 56.9667 19.0329 58.3979 20.7996 58.4H23.9996V56.2667H20.7996C20.2105 56.2661 19.7335 55.7891 19.7329 55.2V45.6H23.9996V43.4667H19.7329V36ZM20.7996 30.6667H60.2663C60.8553 30.6672 61.3324 31.1443 61.3329 31.7333V33.8667H19.7329V31.7333C19.7335 31.1443 20.2105 30.6672 20.7996 30.6667Z" fill="white"/>
<path d="M64.5336 42.4H58.1336C56.3669 42.4021 54.9357 43.8333 54.9336 45.6V52C54.9357 53.7667 56.3669 55.1979 58.1336 55.2H64.5336C66.3003 55.1979 67.7315 53.7667 67.7336 52V45.6C67.7315 43.8333 66.3003 42.4021 64.5336 42.4ZM57.0669 52V45.6C57.0674 45.0109 57.5445 44.5338 58.1336 44.5333H59.2003V46.6667H61.3336V44.5333H64.5336C65.1227 44.5338 65.5997 45.0109 65.6003 45.6V48.8H61.3336C60.156 48.8016 59.2018 49.7557 59.2003 50.9333V53.0667H58.1336C57.5445 53.0661 57.0674 52.5891 57.0669 52ZM64.5336 53.0667H61.3336V50.9333H65.6003V52C65.5997 52.5891 65.1227 53.0661 64.5336 53.0667Z" fill="white"/>
<path d="M50.666 45.6H52.7993V47.7333H50.666V45.6Z" fill="white"/>
<path d="M34.666 45.6H48.5327V47.7333H34.666V45.6Z" fill="white"/>
<path d="M30.4004 45.6H32.5337V47.7333H30.4004V45.6Z" fill="white"/>
<path d="M50.666 49.8667H52.7993V52H50.666V49.8667Z" fill="white"/>
<path d="M34.666 49.8667H48.5327V52H34.666V49.8667Z" fill="white"/>
<path d="M30.4004 49.8667H32.5337V52H30.4004V49.8667Z" fill="white"/>
<path d="M45.3333 55.2H42.1333C40.9557 55.2016 40.0016 56.1557 40 57.3333V60.5333C40.0016 61.7109 40.9557 62.6651 42.1333 62.6667H45.3333C46.5109 62.6651 47.4651 61.7109 47.4667 60.5333V57.3333C47.4651 56.1557 46.5109 55.2016 45.3333 55.2ZM45.3333 60.5333H42.1333V57.3333H45.3333V60.5333Z" fill="white"/>
<path d="M35.7337 55.2H32.5337C31.3561 55.2016 30.402 56.1557 30.4004 57.3333V60.5333C30.402 61.7109 31.3561 62.6651 32.5337 62.6667H35.7337C36.9113 62.6651 37.8655 61.7109 37.8671 60.5333V57.3333C37.8655 56.1557 36.9113 55.2016 35.7337 55.2ZM35.7337 60.5333H32.5337V57.3333H35.7337V60.5333Z" fill="white"/>
<path d="M64.5332 58.4H66.6665V60.5333H64.5332V58.4Z" fill="white"/>
<path d="M60.2676 58.4H62.4009V60.5333H60.2676V58.4Z" fill="white"/>
<path d="M56 58.4H58.1333V60.5333H56V58.4Z" fill="white"/>
<path d="M51.7324 58.4H53.8658V60.5333H51.7324V58.4Z" fill="white"/>
<path d="M14.4 37.0667V26.4H22.9333C24.7 26.3979 26.1312 24.9667 26.1333 23.2V16.8C26.1312 15.0333 24.7 13.6021 22.9333 13.6H14.4V7.2C14.4005 6.61094 14.8776 6.13385 15.4667 6.13333H65.6C66.1891 6.13385 66.6661 6.61094 66.6667 7.2V36H68.8V7.2C68.7979 5.43333 67.3667 4.00208 65.6 4H15.4667C13.7 4.00208 12.2687 5.43333 12.2667 7.2V13.6H11.2C9.43333 13.6021 8.00208 15.0333 8 16.8V27.4667C8.00208 29.2333 9.43333 30.6646 11.2 30.6667H12.2667V37.0667C12.2687 38.8333 13.7 40.2646 15.4667 40.2667V38.1333C14.8776 38.1328 14.4005 37.6557 14.4 37.0667ZM10.1333 16.8C10.1339 16.2109 10.6109 15.7339 11.2 15.7333H22.9333C23.5224 15.7339 23.9995 16.2109 24 16.8V23.2C23.9995 23.7891 23.5224 24.2661 22.9333 24.2667H10.1333V16.8ZM11.2 28.5333C10.6109 28.5328 10.1339 28.0557 10.1333 27.4667V26.4H12.2667V28.5333H11.2Z" fill="white"/>
<path d="M21.8663 20C21.8663 21.1781 20.9111 22.1333 19.7329 22.1333C18.5548 22.1333 17.5996 21.1781 17.5996 20C17.5996 18.8219 18.5548 17.8667 19.7329 17.8667C20.9111 17.8667 21.8663 18.8219 21.8663 20Z" fill="white"/>
<path d="M64.5342 11.4667H62.4009C62.3993 10.2891 61.4452 9.33491 60.2676 9.33334H58.1342C56.9566 9.33491 56.0025 10.2891 56.0009 11.4667H48.5342C48.5327 10.2891 47.5785 9.33491 46.4009 9.33334H44.2676C43.09 9.33491 42.1358 10.2891 42.1342 11.4667V13.1099L36.0118 18.3573C35.6348 18.0422 35.1592 17.8688 34.6676 17.8667H32.5342C31.3566 17.8682 30.4025 18.8224 30.4009 20H28.2676V22.1333H30.4009C30.4025 23.3109 31.3566 24.2651 32.5342 24.2667H34.6676C35.8452 24.2651 36.7993 23.3109 36.8009 22.1333V20.4901L42.9233 15.2427C43.3004 15.5578 43.7759 15.7313 44.2676 15.7333H46.4009C47.5785 15.7318 48.5327 14.7776 48.5342 13.6H56.0009C56.0025 14.7776 56.9566 15.7318 58.1342 15.7333H60.2676C61.4452 15.7318 62.3993 14.7776 62.4009 13.6H64.5342V11.4667ZM32.5342 22.1333V20H34.6676L34.6691 22.1333H32.5342ZM44.2676 13.6V11.4667H46.4009L46.4025 13.6H44.2676ZM58.1342 13.6V11.4667H60.2676L60.2691 13.6H58.1342Z" fill="white"/>
<path d="M41.0664 22.1333H43.1997V24.2667H41.0664V22.1333Z" fill="white"/>
<path d="M45.334 22.1333H60.2673V24.2667H45.334V22.1333Z" fill="white"/>
<path d="M62.4004 22.1333H64.5337V24.2667H62.4004V22.1333Z" fill="white"/>
<path d="M43.1992 17.8667H45.3326V20H43.1992V17.8667Z" fill="white"/>
<path d="M47.4668 17.8667H60.2668V20H47.4668V17.8667Z" fill="white"/>
<path d="M62.4004 17.8667H64.5337V20H62.4004V17.8667Z" fill="white"/>
</g>
<defs>
<filter id="filter0_d" x="0" y="0" width="79.9995" height="80" filterUnits="userSpaceOnUse" color-interpolation-filters="sRGB">
<feFlood flood-opacity="0" result="BackgroundImageFix"/>
<feColorMatrix in="SourceAlpha" type="matrix" values="0 0 0 0 0 0 0 0 0 0 0 0 0 0 0 0 0 0 127 0"/>
<feOffset dy="4"/>
<feGaussianBlur stdDeviation="4"/>
<feColorMatrix type="matrix" values="0 0 0 0 1 0 0 0 0 1 0 0 0 0 1 0 0 0 0.15 0"/>
<feBlend mode="normal" in2="BackgroundImageFix" result="effect1_dropShadow"/>
<feBlend mode="normal" in="SourceGraphic" in2="effect1_dropShadow" result="shape"/>
</filter>
</defs>
</svg>
