<svg width="78" height="78" viewBox="0 0 78 78" fill="none" xmlns="http://www.w3.org/2000/svg">
<g filter="url(#filter0_d)">
<path d="M69.706 14.292L59.708 4.294C59.527 4.112 59.277 4 59 4H33C32.447 4 32 4.448 32 5V38.991L23.496 34.132C23.189 33.956 22.81 33.956 22.504 34.132L8.504 42.132C8.192 42.31 8 42.641 8 43V57C8 57.359 8.192 57.69 8.504 57.868L22.504 65.868C22.657 65.956 22.829 66 23 66C23.171 66 23.343 65.956 23.496 65.868L37.496 57.868C37.808 57.69 38 57.359 38 57V54H58V62C58 64.206 59.794 66 62 66C64.206 66 66 64.206 66 62V54H69C69.553 54 70 53.552 70 53V15C70 14.723 69.888 14.473 69.706 14.292ZM60 7.414L66.586 14H60V7.414ZM23 36.152L34.984 43L31.875 44.777L19.891 37.929L23 36.152ZM28.496 47.132L16.14 40.072L17.875 39.081L31 46.58V50.382L29 51.382V48C29 47.641 28.808 47.31 28.496 47.132ZM14.125 41.223L26.11 48.071L23 49.848L11.016 43L14.125 41.223ZM10 44.723L22 51.58V63.277L10 56.42V44.723ZM24 63.277V51.58L27 49.866V53C27 53.347 27.18 53.668 27.475 53.851C27.635 53.95 27.817 54 28 54C28.153 54 28.306 53.965 28.447 53.895L32.447 51.895C32.786 51.725 33 51.379 33 51V46.438L36 44.724V56.42L24 63.277ZM61 37.535V58H60V36.868L61 37.535ZM63 37.535L64 36.868V58H63V37.535ZM62 35.798L60.215 34.608L62 29.848L63.785 34.608L62 35.798ZM62 64C60.897 64 60 63.103 60 62V60H64V62C64 63.103 63.103 64 62 64ZM68 52H66V35C66 34.88 65.979 34.761 65.937 34.649L62.937 26.649C62.79 26.259 62.417 26 62 26C61.583 26 61.21 26.259 61.063 26.649L58.063 34.649C58.021 34.761 58 34.88 58 35V52H38V43C38 42.641 37.808 42.31 37.496 42.132L34 40.134V6H58V15C58 15.552 58.447 16 59 16H68V52Z" fill="white"/>
<path d="M36 18H38V20H36V18Z" fill="white"/>
<path d="M40 18H66V20H40V18Z" fill="white"/>
<path d="M64 22H66V24H64V22Z" fill="white"/>
<path d="M36 22H62V24H36V22Z" fill="white"/>
<path d="M36 26H56V28H36V26Z" fill="white"/>
<path d="M36 30H56V32H36V30Z" fill="white"/>
</g>
<defs>
<filter id="filter0_d" x="0" y="0" width="78" height="78" filterUnits="userSpaceOnUse" color-interpolation-filters="sRGB">
<feFlood flood-opacity="0" result="BackgroundImageFix"/>
<feColorMatrix in="SourceAlpha" type="matrix" values="0 0 0 0 0 0 0 0 0 0 0 0 0 0 0 0 0 0 127 0"/>
<feOffset dy="4"/>
<feGaussianBlur stdDeviation="4"/>
<feColorMatrix type="matrix" values="0 0 0 0 1 0 0 0 0 1 0 0 0 0 1 0 0 0 0.15 0"/>
<feBlend mode="normal" in2="BackgroundImageFix" result="effect1_dropShadow"/>
<feBlend mode="normal" in="SourceGraphic" in2="effect1_dropShadow" result="shape"/>
</filter>
</defs>
</svg>
