<svg width="76" height="76" viewBox="0 0 76 76" fill="none" xmlns="http://www.w3.org/2000/svg">
<g filter="url(#filter0_d)">
<path d="M55 38V8C55 5.794 53.206 4 51 4H12C9.794 4 8 5.794 8 8V57C8 59.206 9.794 61 12 61H46.705C48.958 62.872 51.849 64 55 64C62.168 64 68 58.168 68 51C68 43.832 62.168 38 55 38ZM46 41.641V37H53V38.17C50.305 38.589 47.882 39.831 46 41.641ZM53 35H46V29H53V35ZM44 43H37V37H44V43ZM28 43V37H35V43H28ZM35 45V51H28V45H35ZM26 35H19V29H26V35ZM28 29H35V35H28V29ZM26 37V43H19V37H26ZM37 35V29H44V35H37ZM53 27H46V21H53V27ZM44 27H37V21H44V27ZM35 27H28V21H35V27ZM26 27H19V21H26V27ZM17 27H10V21H17V27ZM17 29V35H10V29H17ZM17 37V43H10V37H17ZM17 45V51H10V45H17ZM19 45H26V51H19V45ZM26 53V59H19V53H26ZM28 53H35V59H28V53ZM37 53H42.17C42.518 55.24 43.434 57.29 44.774 59H37V53ZM42 51H37V45H43.479C42.539 46.797 42 48.835 42 51ZM12 6H51C52.103 6 53 6.897 53 8V19H10V8C10 6.897 10.897 6 12 6ZM10 57V53H17V59H12C10.897 59 10 58.103 10 57ZM55 62C48.935 62 44 57.065 44 51C44 44.935 48.935 40 55 40C61.065 40 66 44.935 66 51C66 57.065 61.065 62 55 62Z" fill="white"/>
<path d="M54 45C49.589 45 46 48.589 46 53C46 57.411 49.589 61 54 61C58.411 61 62 57.411 62 53C62 48.589 58.411 45 54 45ZM54 59C50.691 59 48 56.309 48 53C48 49.691 50.691 47 54 47C57.309 47 60 49.691 60 53C60 56.309 57.309 59 54 59Z" fill="white"/>
<path d="M57 50H51V52H55.132L52.168 56.445L53.832 57.554L57.832 51.554C58.036 51.247 58.056 50.853 57.882 50.528C57.708 50.203 57.369 50 57 50Z" fill="white"/>
<path d="M14 18H17C18.654 18 20 16.654 20 15C20 14.229 19.699 13.532 19.22 13C19.699 12.468 20 11.771 20 11C20 9.346 18.654 8 17 8H14C13.447 8 13 8.448 13 9V13V17C13 17.552 13.447 18 14 18ZM17 16H15V14H17C17.552 14 18 14.449 18 15C18 15.551 17.552 16 17 16ZM15 10H17C17.552 10 18 10.449 18 11C18 11.551 17.552 12 17 12H15V10Z" fill="white"/>
<path d="M22 8H24V18H22V8Z" fill="white"/>
<path d="M28 12.487L31.152 17.53C31.338 17.828 31.661 18 32 18C32.092 18 32.185 17.987 32.275 17.961C32.704 17.838 33 17.446 33 17V8H31V13.513L27.848 8.47C27.613 8.092 27.152 7.918 26.725 8.038C26.296 8.162 26 8.554 26 9V18H28V12.487Z" fill="white"/>
<path d="M38 18H39C40.654 18 42 16.654 42 15V13C42 12.448 41.553 12 41 12H39V14H40V15C40 15.551 39.552 16 39 16H38C37.448 16 37 15.551 37 15V11C37 10.449 37.448 10 38 10H39C39.552 10 40 10.449 40 11H42C42 9.346 40.654 8 39 8H38C36.346 8 35 9.346 35 11V15C35 16.654 36.346 18 38 18Z" fill="white"/>
<path d="M47 18H48C49.654 18 51 16.654 51 15V11C51 9.346 49.654 8 48 8H47C45.346 8 44 9.346 44 11V15C44 16.654 45.346 18 47 18ZM46 11C46 10.449 46.448 10 47 10H48C48.552 10 49 10.449 49 11V15C49 15.551 48.552 16 48 16H47C46.448 16 46 15.551 46 15V11Z" fill="white"/>
</g>
<defs>
<filter id="filter0_d" x="0" y="0" width="76" height="76" filterUnits="userSpaceOnUse" color-interpolation-filters="sRGB">
<feFlood flood-opacity="0" result="BackgroundImageFix"/>
<feColorMatrix in="SourceAlpha" type="matrix" values="0 0 0 0 0 0 0 0 0 0 0 0 0 0 0 0 0 0 127 0"/>
<feOffset dy="4"/>
<feGaussianBlur stdDeviation="4"/>
<feColorMatrix type="matrix" values="0 0 0 0 1 0 0 0 0 1 0 0 0 0 1 0 0 0 0.15 0"/>
<feBlend mode="normal" in2="BackgroundImageFix" result="effect1_dropShadow"/>
<feBlend mode="normal" in="SourceGraphic" in2="effect1_dropShadow" result="shape"/>
</filter>
</defs>
</svg>
